<svg width="264" height="80" viewBox="0 0 264 80" fill="none" xmlns="http://www.w3.org/2000/svg">
<path d="M67.5834 71.7334C67.5834 70.6288 68.4788 69.7334 69.5834 69.7334H193.583C194.688 69.7334 195.583 70.6288 195.583 71.7334C195.583 72.8379 194.688 73.7334 193.583 73.7334H69.5834C68.4788 73.7334 67.5834 72.8379 67.5834 71.7334Z" fill="url(#paint0_linear_15_89)"/>
<path d="M14.6111 39.8535V55H5.96851V13.7207H36.408V20.4004H14.6111V33.1738H35.7341V39.8535H14.6111ZM49.5564 11.5234V17.5879H41.324V11.5234H49.5564ZM49.5564 23.3008V55H41.324V23.3008H49.5564ZM64.7556 38.0078V55H56.5232V30.3906C56.5232 28.6914 56.4939 27.3047 56.4353 26.2305C56.3962 25.1367 56.3474 24.1602 56.2888 23.3008H64.1404C64.1794 23.5352 64.2283 24.0918 64.2869 24.9707C64.3455 25.8301 64.3943 26.7188 64.4333 27.6367C64.4919 28.5352 64.5212 29.1895 64.5212 29.5996H64.6384C65.7517 27.1777 67.1482 25.4199 68.8279 24.3262C70.5076 23.2324 72.5095 22.6855 74.8337 22.6855C78.1931 22.6855 80.7712 23.7207 82.5681 25.791C84.365 27.8613 85.2634 30.8887 85.2634 34.873V55H77.0603V37.2168C77.0603 34.4238 76.5916 32.334 75.6541 30.9473C74.7166 29.5605 73.3005 28.8672 71.406 28.8672C69.4138 28.8672 67.8025 29.7266 66.572 31.4453C65.3611 33.1445 64.7556 35.332 64.7556 38.0078ZM98.4998 40.7324C98.4998 43.8184 99.0662 46.1523 100.199 47.7344C101.351 49.2969 102.982 50.0781 105.092 50.0781C106.537 50.0781 107.719 49.7656 108.636 49.1406C109.574 48.4961 110.228 47.5488 110.599 46.2988L118.363 46.9727C116.117 52.7148 111.556 55.5859 104.681 55.5859C99.9158 55.5859 96.2537 54.1797 93.6951 51.3672C91.1365 48.5352 89.8572 44.4141 89.8572 39.0039C89.8572 33.7695 91.156 29.7461 93.7537 26.9336C96.3513 24.1211 100.033 22.7148 104.799 22.7148C109.349 22.7148 112.826 24.2285 115.228 27.2559C117.631 30.2637 118.832 34.6777 118.832 40.498V40.7324H98.4998ZM110.863 35.5762C110.707 33.0176 110.092 31.1035 109.017 29.834C107.943 28.5449 106.498 27.9004 104.681 27.9004C102.748 27.9004 101.254 28.5742 100.199 29.9219C99.1638 31.2695 98.6169 33.1543 98.5583 35.5762H110.863Z" fill="white"/>
<path d="M160.042 30.0527C160.042 34.4668 159.183 38.2363 157.464 41.3613C155.765 44.4863 153.401 46.8789 150.374 48.5391C147.366 50.1797 143.89 51 139.944 51H123.245V9.7207H138.187C145.14 9.7207 150.521 11.4785 154.329 14.9941C158.138 18.4902 160.042 23.5098 160.042 30.0527ZM151.341 30.0527C151.341 25.6191 150.189 22.2402 147.884 19.916C145.579 17.5723 142.288 16.4004 138.011 16.4004H131.888V44.3203H139.212C141.693 44.3203 143.831 43.7441 145.628 42.5918C147.444 41.4199 148.851 39.7695 149.847 37.6406C150.843 35.5117 151.341 32.9824 151.341 30.0527ZM173.513 7.52344V13.5879H165.28V7.52344H173.513ZM173.513 19.3008V51H165.28V19.3008H173.513ZM188.712 34.0078V51H180.48V26.3906C180.48 24.6914 180.45 23.3047 180.392 22.2305C180.353 21.1367 180.304 20.1602 180.245 19.3008H188.097C188.136 19.5352 188.185 20.0918 188.243 20.9707C188.302 21.8301 188.351 22.7188 188.39 23.6367C188.448 24.5352 188.478 25.1895 188.478 25.5996H188.595C189.708 23.1777 191.105 21.4199 192.784 20.3262C194.464 19.2324 196.466 18.6855 198.79 18.6855C202.15 18.6855 204.728 19.7207 206.525 21.791C208.321 23.8613 209.22 26.8887 209.22 30.873V51H201.017V33.2168C201.017 30.4238 200.548 28.334 199.61 26.9473C198.673 25.5605 197.257 24.8672 195.362 24.8672C193.37 24.8672 191.759 25.7266 190.528 27.4453C189.318 29.1445 188.712 31.332 188.712 34.0078ZM222.456 36.7324C222.456 39.8184 223.023 42.1523 224.155 43.7344C225.308 45.2969 226.939 46.0781 229.048 46.0781C230.493 46.0781 231.675 45.7656 232.593 45.1406C233.53 44.4961 234.185 43.5488 234.556 42.2988L242.319 42.9727C240.073 48.7148 235.513 51.5859 228.638 51.5859C223.872 51.5859 220.21 50.1797 217.651 47.3672C215.093 44.5352 213.814 40.4141 213.814 35.0039C213.814 29.7695 215.112 25.7461 217.71 22.9336C220.308 20.1211 223.989 18.7148 228.755 18.7148C233.306 18.7148 236.782 20.2285 239.185 23.2559C241.587 26.2637 242.788 30.6777 242.788 36.498V36.7324H222.456ZM234.819 31.5762C234.663 29.0176 234.048 27.1035 232.974 25.834C231.9 24.5449 230.454 23.9004 228.638 23.9004C226.704 23.9004 225.21 24.5742 224.155 25.9219C223.12 27.2695 222.573 29.1543 222.515 31.5762H234.819Z" fill="#FF9500"/>
<defs>
<linearGradient id="paint0_linear_15_89" x1="131.583" y1="69.7334" x2="131.583" y2="73.7334" gradientUnits="userSpaceOnUse">
<stop stop-opacity="0"/>
<stop offset="0.5" stop-color="#FF9500"/>
<stop offset="1" stop-opacity="0"/>
</linearGradient>
</defs>
</svg>
